<svg xmlns="http://www.w3.org/2000/svg" xmlns:xlink="http://www.w3.org/1999/xlink" version="1.1" width="256" height="256" viewBox="0 0 256 256" xml:space="preserve">
<desc>Created with Fabric.js 1.7.22</desc>
<defs>
</defs>
<g transform="translate(128 128) scale(0.72 0.72)" style="">
	<g style="stroke: none; stroke-width: 0; stroke-dasharray: none; stroke-linecap: butt; stroke-linejoin: miter; stroke-miterlimit: 10; fill: none; fill-rule: nonzero; opacity: 1;" transform="translate(-175.05 -175.05000000000004) scale(3.89 3.89)" >
	<path d="M 64.533 0 H 25.467 c -3.829 0 -6.944 3.115 -6.944 6.944 v 76.112 c 0 3.829 3.115 6.944 6.944 6.944 h 39.065 c 3.829 0 6.944 -3.115 6.944 -6.944 V 6.944 C 71.477 3.115 68.362 0 64.533 0 z M 39.593 7.097 h 10.814 c 1.081 0 1.957 0.876 1.957 1.957 c 0 1.08 -0.876 1.956 -1.957 1.956 H 39.593 c -1.081 0 -1.957 -0.876 -1.957 -1.956 C 37.636 7.973 38.512 7.097 39.593 7.097 z M 45 83.684 c -1.891 0 -3.424 -1.533 -3.424 -3.424 c 0 -1.891 1.533 -3.424 3.424 -3.424 s 3.424 1.533 3.424 3.424 C 48.424 82.151 46.891 83.684 45 83.684 z M 67.564 70.52 H 22.436 V 18.017 h 45.128 V 70.52 z" style="stroke: none; stroke-width: 1; stroke-dasharray: none; stroke-linecap: butt; stroke-linejoin: miter; stroke-miterlimit: 10; fill: rgb(0,0,0); fill-rule: nonzero; opacity: 1;" transform=" matrix(1 0 0 1 0 0) " stroke-linecap="round" />
</g>
</g>
</svg>